<?xml version="1.0" encoding="UTF-8" standalone="no"?>
<!DOCTYPE svg PUBLIC "-//W3C//DTD SVG 1.0//EN" "http://www.w3.org/TR/2001/PR-SVG-20010719/DTD/svg10.dtd">
<svg width="44cm" height="24cm" viewBox="58 -102 863 465" xmlns="http://www.w3.org/2000/svg" xmlns:xlink="http://www.w3.org/1999/xlink">
  <text font-size="12.7998" style="fill: #000000;text-anchor:start;font-family:sans-serif;font-style:normal;font-weight:normal" x="220" y="170">
    <tspan x="220" y="170"></tspan>
  </text>
  <g>
    <rect style="fill: #add8e6" x="230" y="40" width="140" height="40"/>
    <rect style="fill: none; fill-opacity:0; stroke-width: 2; stroke: #000000" x="230" y="40" width="140" height="40"/>
    <text font-size="12.7998" style="fill: #000000;text-anchor:middle;font-family:sans-serif;font-style:normal;font-weight:normal" x="300" y="63.9">
      <tspan x="300" y="63.9">extractorCatalog</tspan>
    </text>
  </g>
  <g>
    <rect style="fill: #add8e6" x="160" y="140" width="120" height="60"/>
    <rect style="fill: none; fill-opacity:0; stroke-width: 2; stroke-dasharray: 4; stroke: #000000" x="160" y="140" width="120" height="60"/>
    <text font-size="12.7998" style="fill: #000000;text-anchor:middle;font-family:sans-serif;font-style:normal;font-weight:normal" x="220" y="173.9">
      <tspan x="220" y="173.9">extractor</tspan>
    </text>
  </g>
  <text font-size="12.7998" style="fill: #000000;text-anchor:start;font-family:sans-serif;font-style:normal;font-weight:normal" x="420" y="200">
    <tspan x="420" y="200"></tspan>
  </text>
  <g>
    <polygon style="fill: #add8e6" points="60,0 200,0 200,60 120,60 120,240 200,240 200,300 60,300 "/>
    <polygon style="fill: none; fill-opacity:0; stroke-width: 2; stroke: #000000" points="60,0 200,0 200,60 120,60 120,240 200,240 200,300 60,300 "/>
  </g>
  <g>
    <polyline style="fill: none; fill-opacity:0; stroke-width: 2; stroke: #000000" points="220,200 220,220 160,220 160,227.764 "/>
    <polygon style="fill: #ffffff" points="155,227.764 160,237.764 165,227.764 "/>
    <polygon style="fill: none; fill-opacity:0; stroke-width: 2; stroke: #000000" points="155,227.764 160,237.764 165,227.764 "/>
  </g>
  <g>
    <line style="fill: none; fill-opacity:0; stroke-width: 2; stroke: #000000" x1="160" y1="240" x2="160" y2="347.764"/>
    <polygon style="fill: #ffffff" points="155,347.764 160,357.764 165,347.764 "/>
    <polygon style="fill: none; fill-opacity:0; stroke-width: 2; stroke: #000000" points="155,347.764 160,357.764 165,347.764 "/>
  </g>
  <text font-size="12.7998" style="fill: #000000;text-anchor:start;font-family:sans-serif;font-style:normal;font-weight:normal" x="320" y="20">
    <tspan x="320" y="20"></tspan>
  </text>
  <g>
    <ellipse style="fill: #ffffff" cx="160" cy="30" rx="10" ry="10"/>
    <ellipse style="fill: none; fill-opacity:0; stroke-width: 2; stroke: #000000" cx="160" cy="30" rx="10" ry="10"/>
    <ellipse style="fill: none; fill-opacity:0; stroke-width: 2; stroke: #000000" cx="160" cy="30" rx="10" ry="10"/>
  </g>
  <g>
    <polyline style="fill: none; fill-opacity:0; stroke-width: 2; stroke-dasharray: 4; stroke: #000000" points="170,30 220,30 220,10 300,10 300,35.5279 "/>
    <polyline style="fill: none; fill-opacity:0; stroke-width: 2; stroke: #000000" points="295,27.7639 300,37.7639 305,27.7639 "/>
  </g>
  <g>
    <polyline style="fill: none; fill-opacity:0; stroke-width: 2; stroke: #000000" points="160,-100 160,-40 160,-40 160,7.76393 "/>
    <polygon style="fill: #ffffff" points="155,7.76393 160,17.7639 165,7.76393 "/>
    <polygon style="fill: none; fill-opacity:0; stroke-width: 2; stroke: #000000" points="155,7.76393 160,17.7639 165,7.76393 "/>
  </g>
  <g>
    <polyline style="fill: none; fill-opacity:0; stroke-width: 2; stroke: #000000" points="160,40 160,120 220,120 220,127.764 "/>
    <polygon style="fill: #ffffff" points="215,127.764 220,137.764 225,127.764 "/>
    <polygon style="fill: none; fill-opacity:0; stroke-width: 2; stroke: #000000" points="215,127.764 220,137.764 225,127.764 "/>
  </g>
  <g>
    <path style="fill: none; fill-opacity:0; stroke-width: 2; stroke-dasharray: 4; stroke: #000000" d="M 300 80 C 300,140 240,40 240,135.528"/>
    <polyline style="fill: none; fill-opacity:0; stroke-width: 2; stroke: #000000" points="235,127.764 240,137.764 245,127.764 "/>
  </g>
  <text font-size="12.7998" style="fill: #000000;text-anchor:start;font-family:sans-serif;font-style:normal;font-weight:normal" x="80" y="40">
    <tspan x="80" y="40">puller</tspan>
  </text>
  <g>
    <rect style="fill: #add8e6" x="410" y="260" width="160" height="80"/>
    <rect style="fill: none; fill-opacity:0; stroke-width: 2; stroke: #000000" x="410" y="260" width="160" height="80"/>
    <text font-size="12.7998" style="fill: #000000;text-anchor:middle;font-family:sans-serif;font-style:normal;font-weight:normal" x="490" y="303.9">
      <tspan x="490" y="303.9">resolver</tspan>
    </text>
  </g>
  <g>
    <polyline style="fill: none; fill-opacity:0; stroke-width: 2; stroke-dasharray: 6; stroke: #000000" points="280,160 280,160 400,160 400,20 450,20 450,29 "/>
    <path style="fill: #ffffff" d="M 450 39 C 447.5,39 445,36.5 445,34 C 445,31.5 447.5,29 450,29 C 452.5,29 455,31.5 455,34 C 455,36.5 452.5,39 450,39z"/>
    <path style="fill: none; fill-opacity:0; stroke-width: 2; stroke: #000000" d="M 450 39 C 447.5,39 445,36.5 445,34 C 445,31.5 447.5,29 450,29 C 452.5,29 455,31.5 455,34 C 455,36.5 452.5,39 450,39"/>
  </g>
  <text font-size="12.7998" style="fill: #000000;text-anchor:start;font-family:sans-serif;font-style:normal;font-weight:normal" x="120" y="40">
    <tspan x="120" y="40"></tspan>
  </text>
  <g>
    <rect style="fill: #add8e6" x="410" y="40" width="160" height="80"/>
    <rect style="fill: none; fill-opacity:0; stroke-width: 2; stroke: #000000" x="410" y="40" width="160" height="80"/>
    <text font-size="12.7998" style="fill: #000000;text-anchor:middle;font-family:sans-serif;font-style:normal;font-weight:normal" x="490" y="83.9">
      <tspan x="490" y="83.9">mapper</tspan>
    </text>
  </g>
  <g>
    <polyline style="fill: none; fill-opacity:0; stroke-width: 2; stroke-dasharray: 6; stroke: #000000" points="460,120 450,120 450,260 "/>
    <path style="fill: #000000" d="M 450 260 C 447.5,260 445,257.5 445,255 C 445,252.5 447.5,250 450,250 C 452.5,250 455,252.5 455,255 C 455,257.5 452.5,260 450,260z"/>
    <path style="fill: none; fill-opacity:0; stroke-width: 2; stroke: #000000" d="M 450 260 C 447.5,260 445,257.5 445,255 C 445,252.5 447.5,250 450,250 C 452.5,250 455,252.5 455,255 C 455,257.5 452.5,260 450,260"/>
  </g>
  <g>
    <polygon style="fill: #add8e6" points="920,0 780,0 780,60 860,60 860,240 780,240 780,300 920,300 "/>
    <polygon style="fill: none; fill-opacity:0; stroke-width: 2; stroke: #000000" points="920,0 780,0 780,60 860,60 860,240 780,240 780,300 920,300 "/>
  </g>
  <g>
    <polyline style="fill: none; fill-opacity:0; stroke-width: 2; stroke-dasharray: 6; stroke: #000000" points="450,340 450,360 400,360 400,200 530,200 530,120 "/>
    <path style="fill: #000000" d="M 530 120 C 532.5,120 535,122.5 535,125 C 535,127.5 532.5,130 530,130 C 527.5,130 525,127.5 525,125 C 525,122.5 527.5,120 530,120z"/>
    <path style="fill: none; fill-opacity:0; stroke-width: 2; stroke: #000000" d="M 530 120 C 532.5,120 535,122.5 535,125 C 535,127.5 532.5,130 530,130 C 527.5,130 525,127.5 525,125 C 525,122.5 527.5,120 530,120"/>
  </g>
  <g>
    <polyline style="fill: none; fill-opacity:0; stroke-width: 2; stroke-dasharray: 6; stroke: #000000" points="530,40 530,20 580,20 580,180 286,180 "/>
    <path style="fill: #ffffff" d="M 276 180 C 276,177.5 278.5,175 281,175 C 283.5,175 286,177.5 286,180 C 286,182.5 283.5,185 281,185 C 278.5,185 276,182.5 276,180z"/>
    <path style="fill: none; fill-opacity:0; stroke-width: 2; stroke: #000000" d="M 276 180 C 276,177.5 278.5,175 281,175 C 283.5,175 286,177.5 286,180 C 286,182.5 283.5,185 281,185 C 278.5,185 276,182.5 276,180"/>
  </g>
  <g>
    <ellipse style="fill: #ffffff" cx="820.248" cy="30.2478" rx="10.2478" ry="10.2478"/>
    <ellipse style="fill: none; fill-opacity:0; stroke-width: 2; stroke: #000000" cx="820.248" cy="30.2478" rx="10.2478" ry="10.2478"/>
    <ellipse style="fill: none; fill-opacity:0; stroke-width: 2; stroke: #000000" cx="820.248" cy="30.2478" rx="10.2478" ry="10.2478"/>
  </g>
  <g>
    <rect style="fill: #add8e6" x="720" y="120" width="120" height="60"/>
    <rect style="fill: none; fill-opacity:0; stroke-width: 2; stroke: #000000" x="720" y="120" width="120" height="60"/>
    <text font-size="12.7998" style="fill: #000000;text-anchor:middle;font-family:sans-serif;font-style:normal;font-weight:normal" x="780" y="153.9">
      <tspan x="780" y="153.9">hasher</tspan>
    </text>
  </g>
  <text font-size="12.7998" style="fill: #000000;text-anchor:start;font-family:sans-serif;font-style:normal;font-weight:normal" x="800" y="139.009">
    <tspan x="800" y="139.009"></tspan>
  </text>
  <g>
    <polyline style="fill: none; fill-opacity:0; stroke-width: 2; stroke: #000000" points="820.248,41.4805 820.248,90 780,90 780,107.764 "/>
    <polygon style="fill: #ffffff" points="775,107.764 780,117.764 785,107.764 "/>
    <polygon style="fill: none; fill-opacity:0; stroke-width: 2; stroke: #000000" points="775,107.764 780,117.764 785,107.764 "/>
  </g>
  <g>
    <polyline style="fill: none; fill-opacity:0; stroke-width: 2; stroke: #000000" points="780,180 780,210 820,210 820,247.764 "/>
    <polygon style="fill: #ffffff" points="815,247.764 820,257.764 825,247.764 "/>
    <polygon style="fill: none; fill-opacity:0; stroke-width: 2; stroke: #000000" points="815,247.764 820,257.764 825,247.764 "/>
  </g>
  <g>
    <line style="fill: none; fill-opacity:0; stroke-width: 2; stroke: #000000" x1="820" y1="280" x2="820" y2="346.773"/>
    <polygon style="fill: #ffffff" points="815,346.773 820,356.773 825,346.773 "/>
    <polygon style="fill: none; fill-opacity:0; stroke-width: 2; stroke: #000000" points="815,346.773 820,356.773 825,346.773 "/>
  </g>
  <g>
    <polyline style="fill: none; fill-opacity:0; stroke-width: 2; stroke: #000000" points="820,-100.991 820,-40.9912 820.248,-40.9912 820.248,7.76393 "/>
    <polygon style="fill: #ffffff" points="815.248,7.76393 820.248,17.7639 825.248,7.76393 "/>
    <polygon style="fill: none; fill-opacity:0; stroke-width: 2; stroke: #000000" points="815.248,7.76393 820.248,17.7639 825.248,7.76393 "/>
  </g>
  <text font-size="12.7998" style="fill: #000000;text-anchor:start;font-family:sans-serif;font-style:normal;font-weight:normal" x="860" y="40">
    <tspan x="860" y="40">pusher</tspan>
  </text>
  <g>
    <rect style="fill: #add8e6" x="600" y="70" width="80" height="40"/>
    <rect style="fill: none; fill-opacity:0; stroke-width: 2; stroke: #000000" x="600" y="70" width="80" height="40"/>
    <text font-size="12.7998" style="fill: #000000;text-anchor:middle;font-family:sans-serif;font-style:normal;font-weight:normal" x="640" y="93.9">
      <tspan x="640" y="93.9">tagger</tspan>
    </text>
  </g>
  <g>
    <polyline style="fill: none; fill-opacity:0; stroke-width: 2; stroke: #000000" points="810,30.2478 760,30.2478 760,30 630,30 630,57.7639 "/>
    <polygon style="fill: #ffffff" points="625,57.7639 630,67.7639 635,57.7639 "/>
    <polygon style="fill: none; fill-opacity:0; stroke-width: 2; stroke: #000000" points="625,57.7639 630,67.7639 635,57.7639 "/>
  </g>
  <g>
    <polyline style="fill: none; fill-opacity:0; stroke-width: 2; stroke-dasharray: 6; stroke: #000000" points="630,110 630,110 630,220 520,220 520,260 "/>
    <path style="fill: #000000" d="M 520 260 C 517.5,260 515,257.5 515,255 C 515,252.5 517.5,250 520,250 C 522.5,250 525,252.5 525,255 C 525,257.5 522.5,260 520,260z"/>
    <path style="fill: none; fill-opacity:0; stroke-width: 2; stroke: #000000" d="M 520 260 C 517.5,260 515,257.5 515,255 C 515,252.5 517.5,250 520,250 C 522.5,250 525,252.5 525,255 C 525,257.5 522.5,260 520,260"/>
  </g>
  <g>
    <ellipse style="fill: #ffffff" cx="820" cy="270" rx="10" ry="10"/>
    <ellipse style="fill: none; fill-opacity:0; stroke-width: 2; stroke: #000000" cx="820" cy="270" rx="10" ry="10"/>
    <ellipse style="fill: none; fill-opacity:0; stroke-width: 2; stroke: #000000" cx="820" cy="270" rx="10" ry="10"/>
  </g>
  <g>
    <polyline style="fill: none; fill-opacity:0; stroke-width: 2; stroke: #000000" points="810,270 700,270 700,70 700,70 700,50 650,50 650,57.7639 "/>
    <polygon style="fill: #ffffff" points="645,57.7639 650,67.7639 655,57.7639 "/>
    <polygon style="fill: none; fill-opacity:0; stroke-width: 2; stroke: #000000" points="645,57.7639 650,67.7639 655,57.7639 "/>
  </g>
  <g>
    <polyline style="fill: none; fill-opacity:0; stroke-width: 2; stroke-dasharray: 6; stroke: #000000" points="650,110 650,110 650,240 540,240 540,260 "/>
    <path style="fill: #000000" d="M 540 260 C 537.5,260 535,257.5 535,255 C 535,252.5 537.5,250 540,250 C 542.5,250 545,252.5 545,255 C 545,257.5 542.5,260 540,260z"/>
    <path style="fill: none; fill-opacity:0; stroke-width: 2; stroke: #000000" d="M 540 260 C 537.5,260 535,257.5 535,255 C 535,252.5 537.5,250 540,250 C 542.5,250 545,252.5 545,255 C 545,257.5 542.5,260 540,260"/>
  </g>
  <line style="fill: none; fill-opacity:0; stroke-width: 2.35099e-37; stroke: #000000" x1="490" y1="260" x2="490" y2="340"/>
  <text font-size="12.7998" style="fill: #000000;text-anchor:start;font-family:sans-serif;font-style:normal;font-weight:normal" x="440" y="280">
    <tspan x="440" y="280">pull</tspan>
  </text>
  <text font-size="12.7998" style="fill: #000000;text-anchor:start;font-family:sans-serif;font-style:normal;font-weight:normal" x="520" y="280">
    <tspan x="520" y="280">push</tspan>
  </text>
  <g>
    <line style="fill: none; fill-opacity:0; stroke-width: 2; stroke: #000000" x1="510" y1="280" x2="474.472" y2="280"/>
    <polyline style="fill: none; fill-opacity:0; stroke-width: 2; stroke: #000000" points="482.236,275 472.236,280 482.236,285 "/>
  </g>
</svg>
