<?xml version="1.0" encoding="UTF-8" standalone="no"?>
<!-- Created by diasvg.py -->

<svg
   xmlns:dc="http://purl.org/dc/elements/1.1/"
   xmlns:cc="http://creativecommons.org/ns#"
   xmlns:rdf="http://www.w3.org/1999/02/22-rdf-syntax-ns#"
   xmlns:svg="http://www.w3.org/2000/svg"
   xmlns="http://www.w3.org/2000/svg"
   xmlns:sodipodi="http://sodipodi.sourceforge.net/DTD/sodipodi-0.dtd"
   xmlns:inkscape="http://www.inkscape.org/namespaces/inkscape"
   width="47.100cm"
   height="25.100cm"
   viewBox="0.950 -4.050 48.050 21.050"
   id="svg2"
   version="1.1"
   inkscape:version="0.48.4 r9939"
   sodipodi:docname="architecture.svg">
  <metadata
     id="metadata234">
    <rdf:RDF>
      <cc:Work
         rdf:about="">
        <dc:format>image/svg+xml</dc:format>
        <dc:type
           rdf:resource="http://purl.org/dc/dcmitype/StillImage" />
      </cc:Work>
    </rdf:RDF>
  </metadata>
  <defs
     id="defs232" />
  <sodipodi:namedview
     pagecolor="#ffffff"
     bordercolor="#666666"
     borderopacity="1"
     objecttolerance="10"
     gridtolerance="10"
     guidetolerance="10"
     inkscape:pageopacity="0"
     inkscape:pageshadow="2"
     inkscape:window-width="1070"
     inkscape:window-height="732"
     id="namedview230"
     showgrid="false"
     inkscape:zoom="0.22769522"
     inkscape:cx="834.44879"
     inkscape:cy="444.68506"
     inkscape:window-x="137"
     inkscape:window-y="243"
     inkscape:window-maximized="0"
     inkscape:current-layer="svg2" />
  <rect
     x="1.5057895"
     y="-6.0231581"
     width="47"
     height="25"
     id="rect4"
     style="fill:#f1dcdc;stroke:none" />
  <rect
     x="1.5057895"
     y="-6.0231581"
     width="47"
     height="25"
     id="rect6"
     style="fill:none;stroke:#000000;stroke-width:0.1" />
  <rect
     x="12.00579"
     y="-0.023157895"
     width="7"
     height="2"
     id="rect8"
     style="fill:#add8e6;stroke:none" />
  <rect
     x="12.00579"
     y="-0.023157895"
     width="7"
     height="2"
     id="rect10"
     style="fill:none;stroke:#000000;stroke-width:0.1" />
  <text
     x="15.50579"
     y="1.171842"
     font-size="0.80"
     font-style="normal"
     font-weight="400"
     id="text12"
     style="font-size:0.80000001px;font-style:normal;font-weight:400;text-anchor:middle;fill:#000000;font-family:sans">extractorCatalog</text>
  <rect
     x="8.5057898"
     y="4.9768419"
     width="6"
     height="3"
     id="rect14"
     style="fill:#add8e6;stroke:none" />
  <rect
     x="8.5057898"
     y="4.9768419"
     width="6"
     height="3"
     id="rect16"
     style="fill:none;stroke:#000000;stroke-width:0.1;stroke-dasharray:0.1, 0.1" />
  <text
     x="11.50579"
     y="6.6718416"
     font-size="0.80"
     font-style="normal"
     font-weight="400"
     id="text18"
     style="font-size:0.80000001px;font-style:normal;font-weight:400;text-anchor:middle;fill:#000000;font-family:sans">extractor</text>
  <polygon
     points="10,0 10,3 6,3 6,12 10,12 10,15 3,15 3,0 "
     id="polygon20"
     transform="translate(0.50578947,-2.0231579)"
     style="fill:#add8e6;stroke:none" />
  <polygon
     points="10,0 10,3 6,3 6,12 10,12 10,15 3,15 3,0 "
     id="polygon22"
     transform="translate(0.50578947,-2.0231579)"
     style="fill:none;stroke:#000000;stroke-width:0.1" />
  <polyline
     points="11.000,10.000 11.000,11.000 8.000,11.000 8.000,11.388 "
     id="polyline24"
     transform="translate(0.50578947,-2.0231579)"
     style="fill:none;stroke:#000000;stroke-width:0.1" />
  <polygon
     points="8,11.888 8.25,11.388 7.75,11.388 "
     id="polygon26"
     transform="translate(0.50578947,-2.0231579)"
     style="fill:#ffffff;stroke:none" />
  <polygon
     points="8,11.888 8.25,11.388 7.75,11.388 "
     id="polygon28"
     transform="translate(0.50578947,-2.0231579)"
     style="fill:none;stroke:#000000;stroke-width:0.1" />
  <line
     x1="8.5057898"
     y1="9.9768419"
     x2="8.5057898"
     y2="15.364842"
     id="line30"
     style="stroke:#000000;stroke-width:0.1" />
  <polygon
     points="8,17.888 8.25,17.388 7.75,17.388 "
     id="polygon32"
     transform="translate(0.50578947,-2.0231579)"
     style="fill:#ffffff;stroke:none" />
  <polygon
     points="8,17.888 8.25,17.388 7.75,17.388 "
     id="polygon34"
     transform="translate(0.50578947,-2.0231579)"
     style="fill:none;stroke:#000000;stroke-width:0.1" />
  <ellipse
     cx="8"
     cy="1.5"
     rx="0.5"
     ry="0.5"
     id="ellipse36"
     sodipodi:cx="8"
     sodipodi:cy="1.5"
     sodipodi:rx="0.5"
     sodipodi:ry="0.5"
     transform="translate(0.50578947,-2.0231579)"
     style="fill:#ffffff;stroke:none" />
  <ellipse
     cx="8"
     cy="1.5"
     rx="0.5"
     ry="0.5"
     id="ellipse38"
     sodipodi:cx="8"
     sodipodi:cy="1.5"
     sodipodi:rx="0.5"
     sodipodi:ry="0.5"
     transform="translate(0.50578947,-2.0231579)"
     style="fill:none;stroke:#000000;stroke-width:0.1" />
  <ellipse
     cx="8"
     cy="1.5"
     rx="0.5"
     ry="0.5"
     id="ellipse40"
     sodipodi:cx="8"
     sodipodi:cy="1.5"
     sodipodi:rx="0.5"
     sodipodi:ry="0.5"
     transform="translate(0.50578947,-2.0231579)"
     style="fill:none;stroke:#000000;stroke-width:0.1" />
  <polyline
     points="8.500,1.500 11.000,1.500 11.000,0.500 15.000,0.500 15.000,1.776 "
     id="polyline42"
     transform="translate(0.50578947,-2.0231579)"
     style="fill:none;stroke:#000000;stroke-width:0.1;stroke-dasharray:0.1, 0.1" />
  <polyline
     points="14.750,1.388 15.000,1.888 15.250,1.388 "
     id="polyline44"
     transform="translate(0.50578947,-2.0231579)"
     style="fill:none;stroke:#000000;stroke-width:0.1" />
  <polyline
     points="8.000,-3.000 8.000,-2.000 8.000,-2.000 8.000,0.388 "
     id="polyline46"
     transform="translate(0.50578947,-2.0231579)"
     style="fill:none;stroke:#000000;stroke-width:0.1" />
  <polygon
     points="8,0.888 8.25,0.388 7.75,0.388 "
     id="polygon48"
     transform="translate(0.50578947,-2.0231579)"
     style="fill:#ffffff;stroke:none" />
  <polygon
     points="8,0.888 8.25,0.388 7.75,0.388 "
     id="polygon50"
     transform="translate(0.50578947,-2.0231579)"
     style="fill:none;stroke:#000000;stroke-width:0.1" />
  <polyline
     points="8.000,2.000 8.000,6.000 11.000,6.000 11.000,6.388 "
     id="polyline52"
     transform="translate(0.50578947,-2.0231579)"
     style="fill:none;stroke:#000000;stroke-width:0.1" />
  <polygon
     points="11,6.888 11.25,6.388 10.75,6.388 "
     id="polygon54"
     transform="translate(0.50578947,-2.0231579)"
     style="fill:#ffffff;stroke:none" />
  <polygon
     points="11,6.888 11.25,6.388 10.75,6.388 "
     id="polygon56"
     transform="translate(0.50578947,-2.0231579)"
     style="fill:none;stroke:#000000;stroke-width:0.1" />
  <path
     d="m 15.505789,1.9768421 c 0,3 -3,-1.99999999 -3,2.776"
     id="path58"
     inkscape:connector-curvature="0"
     style="fill:none;stroke:#000000;stroke-width:0.1;stroke-dasharray:0.1, 0.1" />
  <polyline
     points="11.750,6.388 12.000,6.888 12.250,6.388 "
     id="polyline60"
     transform="translate(0.50578947,-2.0231579)"
     style="fill:none;stroke:#000000;stroke-width:0.1" />
  <text
     x="4.5057893"
     y="-0.023157895"
     font-size="0.80"
     font-style="normal"
     font-weight="400"
     id="text62"
     style="font-size:0.80000001px;font-style:normal;font-weight:400;text-anchor:start;fill:#000000;font-family:sans">puller</text>
  <rect
     x="21.005789"
     y="10.976842"
     width="8"
     height="4"
     id="rect64"
     style="fill:#add8e6;stroke:none" />
  <rect
     x="21.005789"
     y="10.976842"
     width="8"
     height="4"
     id="rect66"
     style="fill:none;stroke:#000000;stroke-width:0.1" />
  <text
     x="25.005789"
     y="13.171842"
     font-size="0.80"
     font-style="normal"
     font-weight="400"
     id="text68"
     style="font-size:0.80000001px;font-style:normal;font-weight:400;text-anchor:middle;fill:#000000;font-family:sans">resolver</text>
  <polyline
     points="14.000,8.000 14.000,8.000 20.000,8.000 20.000,1.000 22.500,1.000 22.500,1.450 "
     id="polyline70"
     transform="translate(0.50578947,-2.0231579)"
     style="fill:none;stroke:#000000;stroke-width:0.1;stroke-dasharray:0.3, 0.3" />
  <path
     d="m 23.005789,-0.07315789 c -0.125,0 -0.25,-0.125 -0.25,-0.25 0,-0.125 0.125,-0.25 0.25,-0.25 0.125,0 0.25,0.125 0.25,0.25 0,0.125 -0.125,0.25 -0.25,0.25"
     id="path72"
     inkscape:connector-curvature="0"
     style="fill:#ffffff;stroke:none" />
  <path
     d="m 23.005789,-0.07315789 c -0.125,0 -0.25,-0.125 -0.25,-0.25 0,-0.125 0.125,-0.25 0.25,-0.25 0.125,0 0.25,0.125 0.25,0.25 0,0.125 -0.125,0.25 -0.25,0.25"
     id="path74"
     inkscape:connector-curvature="0"
     style="fill:none;stroke:#000000;stroke-width:0.1" />
  <rect
     x="21.005789"
     y="-0.023157895"
     width="8"
     height="4"
     id="rect76"
     style="fill:#add8e6;stroke:none" />
  <rect
     x="21.005789"
     y="-0.023157895"
     width="8"
     height="4"
     id="rect78"
     style="fill:none;stroke:#000000;stroke-width:0.1" />
  <text
     x="25.005789"
     y="2.1718423"
     font-size="0.80"
     font-style="normal"
     font-weight="400"
     id="text80"
     style="font-size:0.80000001px;font-style:normal;font-weight:400;text-anchor:middle;fill:#000000;font-family:sans">mapper</text>
  <polyline
     points="23.000,6.000 22.500,6.000 22.500,13.000 "
     id="polyline82"
     transform="translate(0.50578947,-2.0231579)"
     style="fill:none;stroke:#000000;stroke-width:0.1;stroke-dasharray:0.3, 0.3" />
  <path
     d="m 23.005789,10.976842 c -0.125,0 -0.25,-0.125 -0.25,-0.25 0,-0.125 0.125,-0.25 0.25,-0.25 0.125,0 0.25,0.125 0.25,0.25 0,0.125 -0.125,0.25 -0.25,0.25"
     id="path84"
     inkscape:connector-curvature="0"
     style="fill:#000000;stroke:none" />
  <path
     d="m 23.005789,10.976842 c -0.125,0 -0.25,-0.125 -0.25,-0.25 0,-0.125 0.125,-0.25 0.25,-0.25 0.125,0 0.25,0.125 0.25,0.25 0,0.125 -0.125,0.25 -0.25,0.25"
     id="path86"
     inkscape:connector-curvature="0"
     style="fill:none;stroke:#000000;stroke-width:0.1" />
  <polygon
     points="39,0 39,3 43,3 43,12 39,12 39,15 46,15 46,0 "
     id="polygon88"
     transform="translate(0.50578947,-2.0231579)"
     style="fill:#add8e6;stroke:none" />
  <polygon
     points="39,0 39,3 43,3 43,12 39,12 39,15 46,15 46,0 "
     id="polygon90"
     transform="translate(0.50578947,-2.0231579)"
     style="fill:none;stroke:#000000;stroke-width:0.1" />
  <polyline
     points="22.500,17.000 22.500,18.000 20.000,18.000 20.000,10.000 26.500,10.000 26.500,6.000 "
     id="polyline92"
     transform="translate(0.50578947,-2.0231579)"
     style="fill:none;stroke:#000000;stroke-width:0.1;stroke-dasharray:0.3, 0.3" />
  <path
     d="m 27.005789,3.9768421 c 0.125,0 0.25,0.125 0.25,0.25 0,0.125 -0.125,0.25 -0.25,0.25 -0.125,0 -0.25,-0.125 -0.25,-0.25 0,-0.125 0.125,-0.25 0.25,-0.25"
     id="path94"
     inkscape:connector-curvature="0"
     style="fill:#000000;stroke:none" />
  <path
     d="m 27.005789,3.9768421 c 0.125,0 0.25,0.125 0.25,0.25 0,0.125 -0.125,0.25 -0.25,0.25 -0.125,0 -0.25,-0.125 -0.25,-0.25 0,-0.125 0.125,-0.25 0.25,-0.25"
     id="path96"
     inkscape:connector-curvature="0"
     style="fill:none;stroke:#000000;stroke-width:0.1" />
  <polyline
     points="26.500,2.000 26.500,1.000 29.000,1.000 29.000,9.000 14.300,9.000 "
     id="polyline98"
     transform="translate(0.50578947,-2.0231579)"
     style="fill:none;stroke:#000000;stroke-width:0.1;stroke-dasharray:0.3, 0.3" />
  <path
     d="m 14.305789,6.9768421 c 0,-0.125 0.125,-0.25 0.25,-0.25 0.125,0 0.25,0.125 0.25,0.25 0,0.125 -0.125,0.25 -0.25,0.25 -0.125,0 -0.25,-0.125 -0.25,-0.25"
     id="path100"
     inkscape:connector-curvature="0"
     style="fill:#ffffff;stroke:none" />
  <path
     d="m 14.305789,6.9768421 c 0,-0.125 0.125,-0.25 0.25,-0.25 0.125,0 0.25,0.125 0.25,0.25 0,0.125 -0.125,0.25 -0.25,0.25 -0.125,0 -0.25,-0.125 -0.25,-0.25"
     id="path102"
     inkscape:connector-curvature="0"
     style="fill:none;stroke:#000000;stroke-width:0.1" />
  <ellipse
     cx="41.012001"
     cy="1.512"
     rx="0.51200002"
     ry="0.51200002"
     id="ellipse104"
     sodipodi:cx="41.012001"
     sodipodi:cy="1.512"
     sodipodi:rx="0.51200002"
     sodipodi:ry="0.51200002"
     transform="translate(0.50578947,-2.0231579)"
     style="fill:#ffffff;stroke:none" />
  <ellipse
     cx="41.012001"
     cy="1.512"
     rx="0.51200002"
     ry="0.51200002"
     id="ellipse106"
     sodipodi:cx="41.012001"
     sodipodi:cy="1.512"
     sodipodi:rx="0.51200002"
     sodipodi:ry="0.51200002"
     transform="translate(0.50578947,-2.0231579)"
     style="fill:none;stroke:#000000;stroke-width:0.1" />
  <ellipse
     cx="41.012001"
     cy="1.512"
     rx="0.51200002"
     ry="0.51200002"
     id="ellipse108"
     sodipodi:cx="41.012001"
     sodipodi:cy="1.512"
     sodipodi:rx="0.51200002"
     sodipodi:ry="0.51200002"
     transform="translate(0.50578947,-2.0231579)"
     style="fill:none;stroke:#000000;stroke-width:0.1" />
  <rect
     x="36.505791"
     y="3.9768422"
     width="6"
     height="3"
     id="rect110"
     style="fill:#add8e6;stroke:none" />
  <rect
     x="36.505791"
     y="3.9768422"
     width="6"
     height="3"
     id="rect112"
     style="fill:none;stroke:#000000;stroke-width:0.1" />
  <text
     x="39.505791"
     y="5.6718421"
     font-size="0.80"
     font-style="normal"
     font-weight="400"
     id="text114"
     style="font-size:0.80000001px;font-style:normal;font-weight:400;text-anchor:middle;fill:#000000;font-family:sans">hasher</text>
  <polyline
     points="41.012,2.074 41.012,4.500 39.000,4.500 39.000,5.388 "
     id="polyline116"
     transform="translate(0.50578947,-2.0231579)"
     style="fill:none;stroke:#000000;stroke-width:0.1" />
  <polygon
     points="39,5.888 39.25,5.388 38.75,5.388 "
     id="polygon118"
     transform="translate(0.50578947,-2.0231579)"
     style="fill:#ffffff;stroke:none" />
  <polygon
     points="39,5.888 39.25,5.388 38.75,5.388 "
     id="polygon120"
     transform="translate(0.50578947,-2.0231579)"
     style="fill:none;stroke:#000000;stroke-width:0.1" />
  <polyline
     points="39.000,9.000 39.000,10.500 41.000,10.500 41.000,12.388 "
     id="polyline122"
     transform="translate(0.50578947,-2.0231579)"
     style="fill:none;stroke:#000000;stroke-width:0.1" />
  <polygon
     points="41,12.888 41.25,12.388 40.75,12.388 "
     id="polygon124"
     transform="translate(0.50578947,-2.0231579)"
     style="fill:#ffffff;stroke:none" />
  <polygon
     points="41,12.888 41.25,12.388 40.75,12.388 "
     id="polygon126"
     transform="translate(0.50578947,-2.0231579)"
     style="fill:none;stroke:#000000;stroke-width:0.1" />
  <line
     x1="41.505791"
     y1="11.976842"
     x2="41.505791"
     y2="15.315843"
     id="line128"
     style="stroke:#000000;stroke-width:0.1" />
  <polygon
     points="41,17.839 41.25,17.339 40.75,17.339 "
     id="polygon130"
     transform="translate(0.50578947,-2.0231579)"
     style="fill:#ffffff;stroke:none" />
  <polygon
     points="41,17.839 41.25,17.339 40.75,17.339 "
     id="polygon132"
     transform="translate(0.50578947,-2.0231579)"
     style="fill:none;stroke:#000000;stroke-width:0.1" />
  <polyline
     points="41.000,-3.000 41.000,-2.050 41.012,-2.050 41.012,0.388 "
     id="polyline134"
     transform="translate(0.50578947,-2.0231579)"
     style="fill:none;stroke:#000000;stroke-width:0.1" />
  <polygon
     points="41.012,0.888 41.262,0.388 40.762,0.388 "
     id="polygon136"
     transform="translate(0.50578947,-2.0231579)"
     style="fill:#ffffff;stroke:none" />
  <polygon
     points="41.012,0.888 41.262,0.388 40.762,0.388 "
     id="polygon138"
     transform="translate(0.50578947,-2.0231579)"
     style="fill:none;stroke:#000000;stroke-width:0.1" />
  <text
     x="43.505791"
     y="-0.023157895"
     font-size="0.80"
     font-style="normal"
     font-weight="400"
     id="text140"
     style="font-size:0.80000001px;font-style:normal;font-weight:400;text-anchor:start;fill:#000000;font-family:sans">pusher</text>
  <rect
     x="30.505789"
     y="1.476842"
     width="4"
     height="2"
     id="rect142"
     style="fill:#add8e6;stroke:none" />
  <rect
     x="30.505789"
     y="1.476842"
     width="4"
     height="2"
     id="rect144"
     style="fill:none;stroke:#000000;stroke-width:0.1" />
  <text
     x="32.505791"
     y="2.6718423"
     font-size="0.80"
     font-style="normal"
     font-weight="400"
     id="text146"
     style="font-size:0.80000001px;font-style:normal;font-weight:400;text-anchor:middle;fill:#000000;font-family:sans">tagger</text>
  <polyline
     points="40.500,1.512 38.000,1.512 38.000,1.500 31.500,1.500 31.500,2.888 "
     id="polyline148"
     transform="translate(0.50578947,-2.0231579)"
     style="fill:none;stroke:#000000;stroke-width:0.1" />
  <polygon
     points="31.5,3.388 31.75,2.888 31.25,2.888 "
     id="polygon150"
     transform="translate(0.50578947,-2.0231579)"
     style="fill:#ffffff;stroke:none" />
  <polygon
     points="31.5,3.388 31.75,2.888 31.25,2.888 "
     id="polygon152"
     transform="translate(0.50578947,-2.0231579)"
     style="fill:none;stroke:#000000;stroke-width:0.1" />
  <polyline
     points="31.500,5.500 31.500,5.500 31.500,11.000 26.000,11.000 26.000,13.000 "
     id="polyline154"
     transform="translate(0.50578947,-2.0231579)"
     style="fill:none;stroke:#000000;stroke-width:0.1;stroke-dasharray:0.3, 0.3" />
  <path
     d="m 26.505789,10.976842 c -0.125,0 -0.25,-0.125 -0.25,-0.25 0,-0.125 0.125,-0.25 0.25,-0.25 0.125,0 0.25,0.125 0.25,0.25 0,0.125 -0.125,0.25 -0.25,0.25"
     id="path156"
     inkscape:connector-curvature="0"
     style="fill:#000000;stroke:none" />
  <path
     d="m 26.505789,10.976842 c -0.125,0 -0.25,-0.125 -0.25,-0.25 0,-0.125 0.125,-0.25 0.25,-0.25 0.125,0 0.25,0.125 0.25,0.25 0,0.125 -0.125,0.25 -0.25,0.25"
     id="path158"
     inkscape:connector-curvature="0"
     style="fill:none;stroke:#000000;stroke-width:0.1" />
  <ellipse
     cx="41"
     cy="13.5"
     rx="0.5"
     ry="0.5"
     id="ellipse160"
     sodipodi:cx="41"
     sodipodi:cy="13.5"
     sodipodi:rx="0.5"
     sodipodi:ry="0.5"
     transform="translate(0.50578947,-2.0231579)"
     style="fill:#ffffff;stroke:none" />
  <ellipse
     cx="41"
     cy="13.5"
     rx="0.5"
     ry="0.5"
     id="ellipse162"
     sodipodi:cx="41"
     sodipodi:cy="13.5"
     sodipodi:rx="0.5"
     sodipodi:ry="0.5"
     transform="translate(0.50578947,-2.0231579)"
     style="fill:none;stroke:#000000;stroke-width:0.1" />
  <ellipse
     cx="41"
     cy="13.5"
     rx="0.5"
     ry="0.5"
     id="ellipse164"
     sodipodi:cx="41"
     sodipodi:cy="13.5"
     sodipodi:rx="0.5"
     sodipodi:ry="0.5"
     transform="translate(0.50578947,-2.0231579)"
     style="fill:none;stroke:#000000;stroke-width:0.1" />
  <polyline
     points="40.500,13.500 35.000,13.500 35.000,3.500 35.000,3.500 35.000,2.500 32.500,2.500 32.500,2.888 "
     id="polyline166"
     transform="translate(0.50578947,-2.0231579)"
     style="fill:none;stroke:#000000;stroke-width:0.1" />
  <polygon
     points="32.5,3.388 32.75,2.888 32.25,2.888 "
     id="polygon168"
     transform="translate(0.50578947,-2.0231579)"
     style="fill:#ffffff;stroke:none" />
  <polygon
     points="32.5,3.388 32.75,2.888 32.25,2.888 "
     id="polygon170"
     transform="translate(0.50578947,-2.0231579)"
     style="fill:none;stroke:#000000;stroke-width:0.1" />
  <polyline
     points="32.500,5.500 32.500,5.500 32.500,12.000 27.000,12.000 27.000,13.000 "
     id="polyline172"
     transform="translate(0.50578947,-2.0231579)"
     style="fill:none;stroke:#000000;stroke-width:0.1;stroke-dasharray:0.3, 0.3" />
  <path
     d="m 27.505789,10.976842 c -0.125,0 -0.25,-0.125 -0.25,-0.25 0,-0.125 0.125,-0.25 0.25,-0.25 0.125,0 0.25,0.125 0.25,0.25 0,0.125 -0.125,0.25 -0.25,0.25"
     id="path174"
     inkscape:connector-curvature="0"
     style="fill:#000000;stroke:none" />
  <path
     d="m 27.505789,10.976842 c -0.125,0 -0.25,-0.125 -0.25,-0.25 0,-0.125 0.125,-0.25 0.25,-0.25 0.125,0 0.25,0.125 0.25,0.25 0,0.125 -0.125,0.25 -0.25,0.25"
     id="path176"
     inkscape:connector-curvature="0"
     style="fill:none;stroke:#000000;stroke-width:0.1" />
  <line
     x1="25.005789"
     y1="10.976842"
     x2="25.005789"
     y2="14.976842"
     id="line178"
     style="stroke:#000000;stroke-width:0.05" />
  <text
     x="22.505789"
     y="11.976842"
     font-size="0.80"
     font-style="normal"
     font-weight="400"
     id="text180"
     style="font-size:0.80000001px;font-style:normal;font-weight:400;text-anchor:start;fill:#000000;font-family:sans">pull</text>
  <text
     x="26.505789"
     y="11.976842"
     font-size="0.80"
     font-style="normal"
     font-weight="400"
     id="text182"
     style="font-size:0.80000001px;font-style:normal;font-weight:400;text-anchor:start;fill:#000000;font-family:sans">push</text>
  <line
     x1="26.005789"
     y1="11.976842"
     x2="24.22979"
     y2="11.976842"
     id="line184"
     style="stroke:#000000;stroke-width:0.1" />
  <polyline
     points="24.112,13.750 23.612,14.000 24.112,14.250 "
     id="polyline186"
     transform="translate(0.50578947,-2.0231579)"
     style="fill:none;stroke:#000000;stroke-width:0.1" />
  <text
     x="3.5057895"
     y="-4.0231581"
     font-size="0.80"
     font-style="normal"
     font-weight="400"
     id="text188"
     style="font-size:0.80000001px;font-style:normal;font-weight:400;text-anchor:start;fill:#000000;font-family:sans">referrer files</text>
  <text
     x="3.5057895"
     y="-3.2231579"
     font-size="0.80"
     font-style="normal"
     font-weight="400"
     id="text190"
     style="font-size:0.80000001px;font-style:normal;font-weight:400;text-anchor:start;fill:#000000;font-family:sans">in</text>
  <text
     x="42.005791"
     y="-4.0231581"
     font-size="0.80"
     font-style="normal"
     font-weight="400"
     id="text192"
     style="font-size:0.80000001px;font-style:normal;font-weight:400;text-anchor:start;fill:#000000;font-family:sans">resource files</text>
  <text
     x="42.005791"
     y="-3.2231579"
     font-size="0.80"
     font-style="normal"
     font-weight="400"
     id="text194"
     style="font-size:0.80000001px;font-style:normal;font-weight:400;text-anchor:start;fill:#000000;font-family:sans">in</text>
  <text
     x="11.50579"
     y="-3.0231578"
     font-size="0.80"
     font-style="normal"
     font-weight="400"
     id="text196"
     style="font-size:0.80000001px;font-style:normal;font-weight:400;text-anchor:start;fill:#000000;font-family:sans">look up class</text>
  <text
     x="11.50579"
     y="-2.2231579"
     font-size="0.80"
     font-style="normal"
     font-weight="400"
     id="text198"
     style="font-size:0.80000001px;font-style:normal;font-weight:400;text-anchor:start;fill:#000000;font-family:sans">by extension</text>
  <text
     x="13.50579"
     y="3.9768422"
     font-size="0.80"
     font-style="normal"
     font-weight="400"
     id="text200"
     style="font-size:0.80000001px;font-style:normal;font-weight:400;text-anchor:start;fill:#000000;font-family:sans">create</text>
  <text
     x="3.5057895"
     y="14.476842"
     font-size="0.80"
     font-style="normal"
     font-weight="400"
     id="text202"
     style="font-size:0.80000001px;font-style:normal;font-weight:400;text-anchor:start;fill:#000000;font-family:sans">referrer files</text>
  <text
     x="3.5057895"
     y="15.276841"
     font-size="0.80"
     font-style="normal"
     font-weight="400"
     id="text204"
     style="font-size:0.80000001px;font-style:normal;font-weight:400;text-anchor:start;fill:#000000;font-family:sans">out</text>
  <text
     x="42.505791"
     y="14.476842"
     font-size="0.80"
     font-style="normal"
     font-weight="400"
     id="text206"
     style="font-size:0.80000001px;font-style:normal;font-weight:400;text-anchor:start;fill:#000000;font-family:sans">resource files</text>
  <text
     x="42.505791"
     y="15.276841"
     font-size="0.80"
     font-style="normal"
     font-weight="400"
     id="text208"
     style="font-size:0.80000001px;font-style:normal;font-weight:400;text-anchor:start;fill:#000000;font-family:sans">out</text>
  <text
     x="15.00579"
     y="5.4768419"
     font-size="0.80"
     font-style="normal"
     font-weight="400"
     id="text210"
     style="font-size:0.80000001px;font-style:normal;font-weight:400;text-anchor:start;fill:#000000;font-family:sans">original urls</text>
  <text
     x="15.00579"
     y="7.9768419"
     font-size="0.80"
     font-style="normal"
     font-weight="400"
     id="text212"
     style="font-size:0.80000001px;font-style:normal;font-weight:400;text-anchor:start;fill:#000000;font-family:sans">renamed urls</text>
  <text
     x="23.305788"
     y="4.9768419"
     font-size="0.80"
     font-style="normal"
     font-weight="400"
     id="text214"
     style="font-size:0.80000001px;font-style:normal;font-weight:400;text-anchor:start;fill:#000000;font-family:sans">original</text>
  <text
     x="23.305788"
     y="5.7768421"
     font-size="0.80"
     font-style="normal"
     font-weight="400"
     id="text216"
     style="font-size:0.80000001px;font-style:normal;font-weight:400;text-anchor:start;fill:#000000;font-family:sans">tags</text>
  <text
     x="17.305788"
     y="12.576842"
     font-size="0.80"
     font-style="normal"
     font-weight="400"
     id="text218"
     style="font-size:0.80000001px;font-style:normal;font-weight:400;text-anchor:start;fill:#000000;font-family:sans">renamed</text>
  <text
     x="17.305788"
     y="13.376842"
     font-size="0.80"
     font-style="normal"
     font-weight="400"
     id="text220"
     style="font-size:0.80000001px;font-style:normal;font-weight:400;text-anchor:start;fill:#000000;font-family:sans">tags</text>
  <text
     x="36.505791"
     y="7.5768423"
     font-size="0.80"
     font-style="normal"
     font-weight="400"
     id="text222"
     style="font-size:0.80000001px;font-style:normal;font-weight:400;text-anchor:start;fill:#000000;font-family:sans">renamed</text>
  <text
     x="36.505791"
     y="8.3768415"
     font-size="0.80"
     font-style="normal"
     font-weight="400"
     id="text224"
     style="font-size:0.80000001px;font-style:normal;font-weight:400;text-anchor:start;fill:#000000;font-family:sans">files</text>
  <text
     x="29.505789"
     y="10.776842"
     font-size="0.80"
     font-style="normal"
     font-weight="400"
     id="text226"
     style="font-size:0.80000001px;font-style:normal;font-weight:400;text-anchor:start;fill:#000000;font-family:sans">original and</text>
  <text
     x="29.505789"
     y="11.576842"
     font-size="0.80"
     font-style="normal"
     font-weight="400"
     id="text228"
     style="font-size:0.80000001px;font-style:normal;font-weight:400;text-anchor:start;fill:#000000;font-family:sans">renamed tags</text>
</svg>
